<svg id="Layer_1" data-name="Layer 1" xmlns="http://www.w3.org/2000/svg" viewBox="0 0 939.35 732.18"><defs><style>.cls-1{fill:#1d1d1b;}</style></defs><rect class="cls-1" x="588.23" y="701.27" width="103.55" height="103.55" transform="translate(-515.36 432.59) rotate(-45)"/><path class="cls-1" d="M1079.34,533.39l-73.25-73.22L932.87,387l-73.22-73.22-73.21-73.22-73.22,73.22L640,387l-73.22-73.22-73.22-73.22-73.25,73.22L200.66,533.39a103.55,103.55,0,0,0,0,146.44h0L273.87,753l73.22,73.22,73.22,73.22,73.25,73.22,73.22-73.22-73.22-73.22L420.31,753l73.25-73.21L640,533.39l73.22,73.22,73.22,73.22L859.65,753l-73.21,73.22-73.22,73.22,73.22,73.22,73.21-73.22,73.22-73.22L1006.09,753l73.25-73.21h0a103.55,103.55,0,0,0,0-146.44Zm-585.78,0-73.25,73.22-73.22,73.22-73.22-73.22,73.22-73.22,73.22-73.22L493.56,387l73.22,73.21ZM932.87,679.83l-73.22-73.22-73.21-73.22-73.22-73.22L786.44,387l219.65,219.65Z" transform="translate(-170.33 -240.52)"/></svg>