<svg xmlns="http://www.w3.org/2000/svg" viewBox="0 0 78 78.12">
  <path d="M13.79,46.44a89.17,89.17,0,0,0,9.88-6.17,78.45,78.45,0,0,1,8.39,7.28l1.73,1.73a92,92,0,0,0-6.42,9,72.46,72.46,0,0,1,7,9.25,73.28,73.28,0,0,1,6.18,12A68.37,68.37,0,0,1,47,67.67a74.65,74.65,0,0,1,7.28-9.14A91.88,91.88,0,0,0,48.1,49.4l1.61-1.6a92.1,92.1,0,0,1,8.51-7.16,91.78,91.78,0,0,0,9.88,6.42,73.66,73.66,0,0,1,12-6.18,68.46,68.46,0,0,1-11.85-6.41h0a75.32,75.32,0,0,1-9.13-7.28,50.38,50.38,0,0,1-4.44-4.57,72.86,72.86,0,0,1-7-9.26,72.82,72.82,0,0,1-6.17-12A67.84,67.84,0,0,1,35,13.24a74.36,74.36,0,0,1-7.28,9.13,48.93,48.93,0,0,1-4.44,4.32A89,89,0,0,1,14,33.85,68.43,68.43,0,0,1,2.07,40,90,90,0,0,1,13.79,46.44Zm20-14.81a79.59,79.59,0,0,0,7.28-8.39q3.33,4.44,7,8.51l1.73,1.73a87.94,87.94,0,0,0-8.14,7.16l-.62.62-.74-.75c-2.59-2.59-5.18-4.93-8-7.28A8.63,8.63,0,0,1,33.79,31.63Z" transform="translate(-2.07 -1.39)"/>
  <style>
    path { fill: #000; }
    @media (prefers-color-scheme: dark) {
      path { fill: #FFF; }
    }
  </style>
</svg>