<svg xmlns="http://www.w3.org/2000/svg" xmlns:xlink="http://www.w3.org/1999/xlink" viewBox="0 0 243.97 233.86"><defs><radialGradient id="a" cx="5645.37" cy="249.38" r="122.06" gradientTransform="translate(-5475.78)" gradientUnits="userSpaceOnUse"><stop offset="0.01" stop-color="#dc3daa"/><stop offset="0.02" stop-color="#d83aaa"/><stop offset="0.15" stop-color="#b928ab"/><stop offset="0.25" stop-color="#a61dab"/><stop offset="0.33" stop-color="#9f19ab"/><stop offset="1" stop-color="#180226"/></radialGradient><linearGradient id="b" x1="5502.08" y1="194.72" x2="5703.93" y2="194.72" gradientTransform="translate(-5475.78)" gradientUnits="userSpaceOnUse"><stop offset="0.06" stop-color="#9f79b8"/><stop offset="0.26" stop-color="#a17bba"/><stop offset="0.36" stop-color="#a783bf"/><stop offset="0.43" stop-color="#b290c9"/><stop offset="0.49" stop-color="#c1a1d5"/><stop offset="0.51" stop-color="#c4a5d7"/><stop offset="0.52" stop-color="#cdb3dd"/><stop offset="0.53" stop-color="#dbc8e7"/><stop offset="0.55" stop-color="#efe7f4"/><stop offset="0.56" stop-color="#fff"/><stop offset="0.57" stop-color="#ece0f3"/><stop offset="0.58" stop-color="#ddc8ea"/><stop offset="0.59" stop-color="#d4b9e5"/><stop offset="0.6" stop-color="#d1b4e3"/><stop offset="0.66" stop-color="#b395d6"/><stop offset="0.72" stop-color="#9c7dcb"/><stop offset="0.77" stop-color="#8e6ec5"/><stop offset="0.81" stop-color="#8969c3"/><stop offset="1" stop-color="#b086cc"/></linearGradient><linearGradient id="c" x1="5497.78" y1="189.44" x2="5691.98" y2="189.44" gradientTransform="translate(-5475.78)" gradientUnits="userSpaceOnUse"><stop offset="0" stop-color="#2f054a"/><stop offset="1" stop-color="#5824b0"/></linearGradient><linearGradient id="d" x1="5499.95" y1="189.44" x2="5689.81" y2="189.44" gradientTransform="translate(-5475.78)" gradientUnits="userSpaceOnUse"><stop offset="0" stop-color="#3d065f"/><stop offset="1" stop-color="#5f27bd"/></linearGradient><linearGradient id="e" x1="6475.21" y1="-2614.64" x2="4848.39" y2="-1746.14" gradientTransform="matrix(0.87, 0.5, 0, 1.15, -5455.8, -98.92)" gradientUnits="userSpaceOnUse"><stop offset="0.06" stop-color="#9f79b8"/><stop offset="0.26" stop-color="#a17bba"/><stop offset="0.37" stop-color="#a783bf"/><stop offset="0.45" stop-color="#b290c9"/><stop offset="0.51" stop-color="#c2a2d6"/><stop offset="0.56" stop-color="#d1b4e3"/><stop offset="0.66" stop-color="#b395d6"/><stop offset="0.75" stop-color="#9c7dcb"/><stop offset="0.84" stop-color="#8e6ec5"/><stop offset="0.92" stop-color="#8969c3"/></linearGradient><linearGradient id="f" x1="6473.48" y1="-2613.89" x2="4846.68" y2="-1745.4" gradientTransform="matrix(0.87, 0.5, 0, 1.15, -5455.8, -98.92)" xlink:href="#d"/><radialGradient id="g" cx="5698.54" cy="74.71" r="88.22" gradientTransform="translate(-5475.78)" gradientUnits="userSpaceOnUse"><stop offset="0.01" stop-color="#dc3daa"/><stop offset="0.04" stop-color="#b9319a"/><stop offset="0.1" stop-color="#8d2285"/><stop offset="0.15" stop-color="#6a1674"/><stop offset="0.2" stop-color="#510d69"/><stop offset="0.25" stop-color="#420861"/><stop offset="0.28" stop-color="#3d065f"/><stop offset="1"/></radialGradient><linearGradient id="h" x1="5719.91" y1="95.6" x2="5565.92" y2="140.89" gradientTransform="translate(-5475.78)" gradientUnits="userSpaceOnUse"><stop offset="0" stop-color="#4916a1"/><stop offset="0.52" stop-color="#5f27bd"/><stop offset="1" stop-color="#b4299a"/></linearGradient><linearGradient id="i" x1="5719.71" y1="95.72" x2="5566.25" y2="140.85" gradientTransform="translate(-5475.78)" gradientUnits="userSpaceOnUse"><stop offset="0" stop-color="#46159b"/><stop offset="0.52" stop-color="#5e26bb"/><stop offset="0.69" stop-color="#7a28b2"/><stop offset="1" stop-color="#b4299a"/></linearGradient><linearGradient id="j" x1="5719.51" y1="95.84" x2="5566.57" y2="140.82" gradientTransform="translate(-5475.78)" gradientUnits="userSpaceOnUse"><stop offset="0" stop-color="#431494"/><stop offset="0.52" stop-color="#5d26b9"/><stop offset="0.69" stop-color="#7828b3"/><stop offset="1" stop-color="#b4299a"/></linearGradient><linearGradient id="k" x1="5719.32" y1="95.95" x2="5566.9" y2="140.78" gradientTransform="translate(-5475.78)" gradientUnits="userSpaceOnUse"><stop offset="0" stop-color="#41138e"/><stop offset="0.52" stop-color="#5b25b6"/><stop offset="0.69" stop-color="#7528b4"/><stop offset="1" stop-color="#b4299a"/></linearGradient><linearGradient id="l" x1="5719.12" y1="96.07" x2="5567.23" y2="140.74" gradientTransform="translate(-5475.78)" gradientUnits="userSpaceOnUse"><stop offset="0" stop-color="#3e1288"/><stop offset="0.52" stop-color="#5a24b4"/><stop offset="0.69" stop-color="#7228b5"/><stop offset="1" stop-color="#b4299a"/></linearGradient><linearGradient id="m" x1="5718.92" y1="96.19" x2="5567.56" y2="140.7" gradientTransform="translate(-5475.78)" gradientUnits="userSpaceOnUse"><stop offset="0" stop-color="#3b1182"/><stop offset="0.52" stop-color="#5924b2"/><stop offset="0.69" stop-color="#6f28b6"/><stop offset="1" stop-color="#b4299a"/></linearGradient><linearGradient id="n" x1="5718.72" y1="96.3" x2="5567.88" y2="140.67" gradientTransform="translate(-5475.78)" gradientUnits="userSpaceOnUse"><stop offset="0" stop-color="#38117b"/><stop offset="0.52" stop-color="#5823b0"/><stop offset="0.69" stop-color="#6d27b8"/><stop offset="1" stop-color="#b4299a"/></linearGradient><linearGradient id="o" x1="5718.53" y1="96.42" x2="5568.21" y2="140.63" gradientTransform="translate(-5475.78)" gradientUnits="userSpaceOnUse"><stop offset="0" stop-color="#351075"/><stop offset="0.52" stop-color="#5723ae"/><stop offset="0.69" stop-color="#6a27b9"/><stop offset="1" stop-color="#b4299a"/></linearGradient><linearGradient id="p" x1="5718.33" y1="96.54" x2="5568.54" y2="140.59" gradientTransform="translate(-5475.78)" gradientUnits="userSpaceOnUse"><stop offset="0" stop-color="#320f6f"/><stop offset="0.52" stop-color="#5622ac"/><stop offset="0.69" stop-color="#6727ba"/><stop offset="1" stop-color="#b4299a"/></linearGradient><linearGradient id="q" x1="5718.13" y1="96.65" x2="5568.87" y2="140.55" gradientTransform="translate(-5475.78)" gradientUnits="userSpaceOnUse"><stop offset="0" stop-color="#300e69"/><stop offset="0.52" stop-color="#5421a9"/><stop offset="0.69" stop-color="#6427bb"/><stop offset="1" stop-color="#b4299a"/></linearGradient><linearGradient id="r" x1="5717.93" y1="96.77" x2="5569.19" y2="140.52" gradientTransform="translate(-5475.78)" gradientUnits="userSpaceOnUse"><stop offset="0" stop-color="#2d0d62"/><stop offset="0.52" stop-color="#5321a7"/><stop offset="0.69" stop-color="#6227bc"/><stop offset="1" stop-color="#b4299a"/></linearGradient><linearGradient id="s" x1="5717.74" y1="96.89" x2="5569.52" y2="140.48" gradientTransform="translate(-5475.78)" gradientUnits="userSpaceOnUse"><stop offset="0" stop-color="#2a0c5c"/><stop offset="0.69" stop-color="#5f27bd"/><stop offset="1" stop-color="#b4299a"/></linearGradient><radialGradient id="t" cx="6414.45" cy="1717.68" r="35.39" gradientTransform="matrix(0.92, -0.38, 0.25, 0.61, -6198.35, 1619.66)" gradientUnits="userSpaceOnUse"><stop offset="0" stop-color="#972a74"/><stop offset="0.04" stop-color="#8a266a"/><stop offset="0.19" stop-color="#601b4a"/><stop offset="0.35" stop-color="#3d112f"/><stop offset="0.51" stop-color="#230a1b"/><stop offset="0.67" stop-color="#0f040c"/><stop offset="0.83" stop-color="#040103"/><stop offset="1"/></radialGradient><radialGradient id="u" cx="6263.88" cy="915.35" r="27.14" gradientTransform="matrix(0.95, -0.33, 0.19, 0.56, -6013.6, 1684.83)" xlink:href="#t"/><linearGradient id="v" x1="964.28" y1="-2298" x2="875.77" y2="-2364.91" gradientTransform="matrix(0.87, 0.5, -1.5, 0.29, -4163.7, 393.49)" gradientUnits="userSpaceOnUse"><stop offset="0" stop-color="#3d065f"/><stop offset="1" stop-color="#12054e"/><stop offset="1" stop-color="#10054d"/></linearGradient><linearGradient id="w" x1="5580.26" y1="144.81" x2="5629.85" y2="222.63" gradientTransform="translate(-5475.78)" gradientUnits="userSpaceOnUse"><stop offset="0.06" stop-color="#9f79b8"/><stop offset="0.25" stop-color="#a17bba"/><stop offset="0.35" stop-color="#a883c0"/><stop offset="0.42" stop-color="#b490cc"/><stop offset="0.48" stop-color="#c5a3dc"/><stop offset="0.54" stop-color="#dbbbf0"/><stop offset="0.56" stop-color="#e6c6fa"/><stop offset="0.6" stop-color="#d6b6f1"/><stop offset="0.69" stop-color="#b595dd"/><stop offset="0.77" stop-color="#9d7dcf"/><stop offset="0.85" stop-color="#8e6ec6"/><stop offset="0.92" stop-color="#8969c3"/></linearGradient><radialGradient id="x" cx="5538.75" cy="128.96" r="29.72" gradientTransform="translate(-5475.78)" gradientUnits="userSpaceOnUse"><stop offset="0.01" stop-color="#ff75d4"/><stop offset="0.09" stop-color="#d84fc3"/><stop offset="0.16" stop-color="#b932b6"/><stop offset="0.23" stop-color="#a620ae"/><stop offset="0.28" stop-color="#9f19ab"/><stop offset="0.36" stop-color="#8a1697"/><stop offset="0.57" stop-color="#590d66"/><stop offset="0.75" stop-color="#360743"/><stop offset="0.9" stop-color="#20032e"/><stop offset="1" stop-color="#180226"/></radialGradient><radialGradient id="y" cx="5539.63" cy="129.4" r="7.46" gradientTransform="translate(-5475.78)" gradientUnits="userSpaceOnUse"><stop offset="0.09" stop-color="#c211a1"/><stop offset="0.09" stop-color="#b9109b"/><stop offset="0.13" stop-color="#5b0663"/><stop offset="0.15" stop-color="#510558"/><stop offset="0.21" stop-color="#38043d"/><stop offset="0.29" stop-color="#230226"/><stop offset="0.37" stop-color="#130115"/><stop offset="0.48" stop-color="#080109"/><stop offset="0.62" stop-color="#020002"/><stop offset="1"/></radialGradient><radialGradient id="z" cx="5695.69" cy="73.13" r="7.46" xlink:href="#y"/><radialGradient id="aa" cx="5647.03" cy="249.35" r="7.46" xlink:href="#y"/><linearGradient id="ab" x1="5678.32" y1="87.71" x2="5679.67" y2="168.9" gradientTransform="translate(-5475.78)" gradientUnits="userSpaceOnUse"><stop offset="0.02" stop-color="#f7aa90"/><stop offset="0.02" stop-color="#f4a491"/><stop offset="0.11" stop-color="#d6739a"/><stop offset="0.18" stop-color="#be4ca2"/><stop offset="0.25" stop-color="#ad30a7"/><stop offset="0.32" stop-color="#a31faa"/><stop offset="0.36" stop-color="#9f19ab"/><stop offset="0.81" stop-color="#5824b0"/><stop offset="0.98" stop-color="#4916a1"/></linearGradient><linearGradient id="ac" x1="5681.63" y1="87.65" x2="5682.99" y2="168.84" xlink:href="#ab"/><linearGradient id="ad" x1="5685.45" y1="87.59" x2="5686.8" y2="168.78" xlink:href="#ab"/><linearGradient id="ae" x1="5688.76" y1="87.54" x2="5690.11" y2="168.7" xlink:href="#ab"/><linearGradient id="af" x1="5692.32" y1="87.48" x2="5693.67" y2="168.64" xlink:href="#ab"/><linearGradient id="ag" x1="5695.88" y1="87.41" x2="5697.24" y2="168.6" xlink:href="#ab"/><linearGradient id="ah" x1="5699.7" y1="87.35" x2="5701.05" y2="168.53" xlink:href="#ab"/><linearGradient id="ai" x1="5703.26" y1="87.29" x2="5704.61" y2="168.47" xlink:href="#ab"/><linearGradient id="aj" x1="5675.6" y1="87.75" x2="5676.95" y2="168.94" xlink:href="#ab"/><linearGradient id="ak" x1="5679.41" y1="87.69" x2="5680.77" y2="168.87" xlink:href="#ab"/><linearGradient id="al" x1="5682.98" y1="87.64" x2="5684.33" y2="168.79" xlink:href="#ab"/><linearGradient id="am" x1="5686.29" y1="87.57" x2="5687.64" y2="168.77" xlink:href="#ab"/><linearGradient id="an" x1="5690.1" y1="87.52" x2="5691.45" y2="168.68" xlink:href="#ab"/><linearGradient id="ao" x1="5693.66" y1="87.46" x2="5695.01" y2="168.62" xlink:href="#ab"/><linearGradient id="ap" x1="5696.98" y1="87.4" x2="5698.33" y2="168.57" xlink:href="#ab"/><linearGradient id="aq" x1="5700.54" y1="87.34" x2="5701.89" y2="168.52" xlink:href="#ab"/><linearGradient id="ar" x1="5673.38" y1="87.79" x2="5674.74" y2="168.97" xlink:href="#ab"/><linearGradient id="as" x1="5676.69" y1="87.73" x2="5678.05" y2="168.92" xlink:href="#ab"/><linearGradient id="at" x1="5680.51" y1="87.67" x2="5681.86" y2="168.86" xlink:href="#ab"/><linearGradient id="au" x1="5684.07" y1="87.62" x2="5685.42" y2="168.78" xlink:href="#ab"/><linearGradient id="av" x1="5687.38" y1="87.56" x2="5688.73" y2="168.73" xlink:href="#ab"/><linearGradient id="aw" x1="5691.19" y1="87.51" x2="5692.55" y2="168.66" xlink:href="#ab"/><linearGradient id="ax" x1="5694.51" y1="87.44" x2="5695.86" y2="168.62" xlink:href="#ab"/><linearGradient id="ay" x1="5698.32" y1="87.37" x2="5699.67" y2="168.56" xlink:href="#ab"/><linearGradient id="az" x1="5670.91" y1="87.84" x2="5672.26" y2="169" xlink:href="#ab"/><linearGradient id="ba" x1="5674.22" y1="87.78" x2="5675.58" y2="168.95" xlink:href="#ab"/><linearGradient id="bb" x1="5678.04" y1="87.72" x2="5679.39" y2="168.89" xlink:href="#ab"/><linearGradient id="bc" x1="5681.35" y1="87.66" x2="5682.7" y2="168.83" xlink:href="#ab"/><linearGradient id="bd" x1="5684.91" y1="87.59" x2="5686.26" y2="168.78" xlink:href="#ab"/><linearGradient id="be" x1="5688.47" y1="87.54" x2="5689.83" y2="168.72" xlink:href="#ab"/><linearGradient id="bf" x1="5692.29" y1="87.48" x2="5693.64" y2="168.65" xlink:href="#ab"/><linearGradient id="bg" x1="5695.85" y1="87.43" x2="5697.2" y2="168.59" xlink:href="#ab"/><linearGradient id="bh" x1="5668.19" y1="87.87" x2="5669.55" y2="169.06" xlink:href="#ab"/><linearGradient id="bi" x1="5672" y1="87.81" x2="5673.36" y2="169" xlink:href="#ab"/><linearGradient id="bj" x1="5675.57" y1="87.76" x2="5676.92" y2="168.93" xlink:href="#ab"/><linearGradient id="bk" x1="5678.88" y1="87.7" x2="5680.23" y2="168.88" xlink:href="#ab"/><linearGradient id="bl" x1="5682.69" y1="87.64" x2="5684.05" y2="168.81" xlink:href="#ab"/><linearGradient id="bm" x1="5686" y1="87.58" x2="5687.36" y2="168.76" xlink:href="#ab"/><linearGradient id="bn" x1="5689.82" y1="87.52" x2="5691.17" y2="168.7" xlink:href="#ab"/><linearGradient id="bo" x1="5693.13" y1="87.46" x2="5694.48" y2="168.64" xlink:href="#ab"/><linearGradient id="bp" x1="5665.97" y1="87.9" x2="5667.33" y2="169.1" xlink:href="#ab"/><linearGradient id="bq" x1="5669.29" y1="87.86" x2="5670.64" y2="169.04" xlink:href="#ab"/><linearGradient id="br" x1="5673.1" y1="87.8" x2="5674.45" y2="168.97" xlink:href="#ab"/><linearGradient id="bs" x1="5676.41" y1="87.74" x2="5677.76" y2="168.92" xlink:href="#ab"/><linearGradient id="bt" x1="5680.22" y1="87.65" x2="5681.58" y2="168.86" xlink:href="#ab"/><linearGradient id="bu" x1="5683.78" y1="87.64" x2="5685.14" y2="168.79" xlink:href="#ab"/><linearGradient id="bv" x1="5687.1" y1="87.57" x2="5688.45" y2="168.74" xlink:href="#ab"/><linearGradient id="bw" x1="5690.91" y1="87.49" x2="5692.26" y2="168.68" xlink:href="#ab"/><linearGradient id="bx" x1="5663.5" y1="87.94" x2="5664.86" y2="169.14" xlink:href="#ab"/><linearGradient id="by" x1="5666.82" y1="87.89" x2="5668.17" y2="169.08" xlink:href="#ab"/><linearGradient id="bz" x1="5670.63" y1="87.82" x2="5671.98" y2="169.02" xlink:href="#ab"/><linearGradient id="ca" x1="5674.19" y1="87.78" x2="5675.54" y2="168.95" xlink:href="#ab"/><linearGradient id="cb" x1="5677.5" y1="87.72" x2="5678.85" y2="168.9" xlink:href="#ab"/><linearGradient id="cc" x1="5681.32" y1="87.66" x2="5682.67" y2="168.84" xlink:href="#ab"/><linearGradient id="cd" x1="5684.63" y1="87.6" x2="5685.98" y2="168.78" xlink:href="#ab"/><linearGradient id="ce" x1="5688.44" y1="87.54" x2="5689.79" y2="168.72" xlink:href="#ab"/><linearGradient id="cf" x1="5661.03" y1="88.02" x2="5662.39" y2="169.17" xlink:href="#ab"/><linearGradient id="cg" x1="5664.35" y1="87.95" x2="5665.7" y2="169.12" xlink:href="#ab"/><linearGradient id="ch" x1="5668.16" y1="87.88" x2="5669.51" y2="169.06" xlink:href="#ab"/><linearGradient id="ci" x1="5671.47" y1="87.82" x2="5672.82" y2="169" xlink:href="#ab"/><linearGradient id="cj" x1="5675.03" y1="87.76" x2="5676.39" y2="168.94" xlink:href="#ab"/><linearGradient id="ck" x1="5678.59" y1="87.69" x2="5679.95" y2="168.88" xlink:href="#ab"/><linearGradient id="cl" x1="5682.41" y1="87.62" x2="5683.76" y2="168.82" xlink:href="#ab"/><linearGradient id="cm" x1="5685.97" y1="87.59" x2="5687.32" y2="168.76" xlink:href="#ab"/></defs><g style="isolation:isolate"><path d="M140.91,264a15.26,15.26,0,0,1-7.46-1.72L24.72,199.5c-2-1.15-3.08-2.75-3.08-4.52,0-2.1,1.56-4.21,4.28-5.78l61.71-35.63a19.93,19.93,0,0,1,9.66-2.41,15.26,15.26,0,0,1,7.46,1.72l108.73,62.78c2,1.14,3.08,2.75,3.08,4.51,0,2.11-1.56,4.22-4.28,5.79l-61.71,35.62A19.82,19.82,0,0,1,140.91,264ZM97.29,151.88A19.19,19.19,0,0,0,88,154.2L26.28,189.83c-2.49,1.43-3.92,3.32-3.92,5.15,0,1.5,1,2.88,2.72,3.89l108.73,62.78a14.5,14.5,0,0,0,7.1,1.63,19.22,19.22,0,0,0,9.3-2.32l61.7-35.63c2.49-1.44,3.93-3.32,3.93-5.16,0-1.5-1-2.88-2.72-3.89L104.38,153.51A14.43,14.43,0,0,0,97.29,151.88Z" transform="translate(-16.02 -30.14)" style="mix-blend-mode:exclusion;fill:url(#a)"/><g style="opacity:0.2"><path d="M140.91,256.87a20.7,20.7,0,0,1-10.27-2.47L21.91,191.62C18.16,189.45,16,186,16,182.23c0-4.17,2.58-8,7.09-10.65L84.82,136a25.22,25.22,0,0,1,12.47-3.17,20.6,20.6,0,0,1,10.27,2.48L216.29,198c3.75,2.17,5.89,5.58,5.89,9.39,0,4.16-2.58,8.05-7.09,10.65L153.38,253.7A25.33,25.33,0,0,1,140.91,256.87Z" transform="translate(-16.02 -30.14)" style="opacity:0"/><path d="M85.09,136.42a24.71,24.71,0,0,1,12.43-3.08,23.66,23.66,0,0,1,5.1.62,20.25,20.25,0,0,1,5.08,2L216,198.5c3.73,2.16,5.67,5.56,5.44,9.27a10.81,10.81,0,0,1-.65,3c-.94,2.64-3.63,5.46-6.67,7.22l-60.83,35.12a24.16,24.16,0,0,1-2.65,1.31,26,26,0,0,1-9.62,1.9,20.06,20.06,0,0,1-10.13-2.4L22.18,191.14c-3.74-2.15-5.67-5.57-5.43-9.28a11.37,11.37,0,0,1,.53-2.63c.88-2.79,3.65-5.77,6.83-7.6Z" transform="translate(-16.02 -30.14)" style="opacity:0.09090909361839311"/><path d="M85.36,136.89a24.26,24.26,0,0,1,12.4-3,21.07,21.07,0,0,1,10.08,2.78L215.75,199c3.71,2.15,5.45,5.54,5,9.15a11.86,11.86,0,0,1-.8,2.86c-.92,2.35-4,5.35-6.75,6.93l-60,34.62a26.26,26.26,0,0,1-2.6,1.3,25.36,25.36,0,0,1-9.46,1.94,19.6,19.6,0,0,1-10-2.32L22.45,190.67c-3.72-2.15-5.45-5.56-5-9.17a12.69,12.69,0,0,1,.67-2.52c.88-2.48,4.09-5.65,7-7.3Z" transform="translate(-16.02 -30.14)" style="opacity:0.1818181839254169"/><path d="M85.64,137.36A23.61,23.61,0,0,1,98,134.46a22.52,22.52,0,0,1,5,.8,26.48,26.48,0,0,1,5,2.13l107.49,62.06c3.7,2.13,5.25,5.5,4.56,9a14.24,14.24,0,0,1-1,2.72c-.89,2.07-4.39,5.23-6.83,6.64l-59.08,34.11c-.62.36-1.88,1-2.56,1.3a24.91,24.91,0,0,1-9.3,2,19.2,19.2,0,0,1-9.84-2.24L22.72,190.2c-3.71-2.14-5.24-5.54-4.49-9.07a14.37,14.37,0,0,1,.82-2.39c.85-2.18,4.52-5.54,7.06-7Z" transform="translate(-16.02 -30.14)" style="opacity:0.2727272742324407"/><path d="M85.91,137.83a22.36,22.36,0,0,1,17.29-1.93,31.91,31.91,0,0,1,4.92,2.2L215.2,199.92c3.68,2.12,5,5.47,4.11,8.91a16.76,16.76,0,0,1-1.11,2.57c-.84,1.78-4.78,5.12-6.91,6.35l-58.2,33.6c-.54.32-1.92,1-2.51,1.3a24.79,24.79,0,0,1-9.14,2,18.72,18.72,0,0,1-9.71-2.16L23,189.73c-3.71-2.14-5-5.53-4-9a20.91,20.91,0,0,1,1-2.27c.81-1.88,4.95-5.42,7.18-6.71Z" transform="translate(-16.02 -30.14)" style="opacity:0.36363636453946446"/><path d="M86.18,138.3a21.61,21.61,0,0,1,17.22-1.75,39.39,39.39,0,0,1,4.86,2.26l106.67,61.58c3.66,2.11,4.84,5.44,3.66,8.79a22.87,22.87,0,0,1-1.27,2.44c-.76,1.5-5.15,5-7,6L153,250.77c-.46.27-1.95,1.06-2.46,1.29a24.39,24.39,0,0,1-9,2.07A18.4,18.4,0,0,1,132,252L23.27,189.26c-3.7-2.13-4.84-5.51-3.57-8.87.27-.73.75-1.39,1.11-2.15.75-1.58,5.39-5.31,7.3-6.41Z" transform="translate(-16.02 -30.14)" style="opacity:0.45454545484648823"/><path d="M86.45,138.78a22.08,22.08,0,0,1,12.25-2.64,21.79,21.79,0,0,1,4.89,1.06,49.92,49.92,0,0,1,4.82,2.32l106.25,61.34c3.64,2.1,4.65,5.42,3.21,8.67a9.55,9.55,0,0,1-1.42,2.3c-.43,1.33-5.54,4.88-7.06,5.76l-56.45,32.59c-.39.23-2,1.1-2.42,1.29a24,24,0,0,1-8.82,2.11,18,18,0,0,1-9.43-2L23.54,188.79c-3.68-2.13-4.65-5.5-3.1-8.77a9.51,9.51,0,0,1,1.25-2c.4-1.4,5.83-5.19,7.42-6.11Z" transform="translate(-16.02 -30.14)" style="opacity:0.545454545153512"/><path d="M86.72,139.25a21.67,21.67,0,0,1,12.22-2.55,21.4,21.4,0,0,1,4.85,1.15c.66.21,4.21,2.06,4.76,2.38l105.84,61.1c3.62,2.09,4.46,5.39,2.76,8.55a9.41,9.41,0,0,1-1.57,2.16c-.35,1.07-5.92,4.77-7.14,5.47L152.87,249.6c-.31.17-2,1.12-2.37,1.28a23.85,23.85,0,0,1-8.67,2.15,17.47,17.47,0,0,1-9.28-1.94L23.81,188.32c-3.67-2.12-4.47-5.49-2.64-8.67a10.41,10.41,0,0,1,1.4-1.9c.32-1.13,6.26-5.08,7.54-5.82Z" transform="translate(-16.02 -30.14)" style="opacity:0.6363636354605358"/><path d="M87,139.72a21.17,21.17,0,0,1,12.17-2.46A20.77,20.77,0,0,1,104,138.5c.5.16,4.3,2.2,4.71,2.44L214.11,201.8c3.61,2.08,4.3,5.38,2.32,8.43a10.21,10.21,0,0,1-1.72,2c-.26.8-6.3,4.65-7.22,5.18L152.79,249c-.23.13-2.07,1.16-2.32,1.28a23.45,23.45,0,0,1-8.51,2.19,17,17,0,0,1-9.14-1.86L24.08,187.85c-3.66-2.12-4.29-5.48-2.17-8.56a10.13,10.13,0,0,1,1.55-1.79c.23-.84,6.69-5,7.64-5.51Z" transform="translate(-16.02 -30.14)" style="opacity:0.7272727257675595"/><path d="M87.27,140.19a20.71,20.71,0,0,1,12.14-2.37,21.21,21.21,0,0,1,4.76,1.32c.34.12,4.38,2.35,4.66,2.51l105,60.62c3.59,2.07,4.12,5.37,1.87,8.31a10.37,10.37,0,0,1-1.87,1.88c-.18.54-6.69,4.54-7.3,4.89l-53.82,31.07c-.15.09-2.11,1.2-2.28,1.28a22.8,22.8,0,0,1-8.35,2.23,16.49,16.49,0,0,1-9-1.78L24.35,187.38c-3.65-2.11-4.12-5.49-1.7-8.46a10.3,10.3,0,0,1,1.69-1.67c.16-.56,7.13-4.85,7.76-5.21Z" transform="translate(-16.02 -30.14)" style="opacity:0.8181818160745833"/><path d="M87.54,140.66a20.31,20.31,0,0,1,12.11-2.28,20.86,20.86,0,0,1,4.72,1.41c.16.06,4.46,2.49,4.6,2.57l104.6,60.38c3.57,2.06,4,5.36,1.42,8.2a11.08,11.08,0,0,1-2,1.74c-.09.26-7.07,4.41-7.38,4.59l-52.94,30.57c-.08,0-2.15,1.23-2.24,1.27a22.61,22.61,0,0,1-8.18,2.27,16.15,16.15,0,0,1-8.87-1.7L24.63,186.9c-3.64-2.1-4-5.49-1.25-8.35A10.63,10.63,0,0,1,25.22,177c.08-.29,7.57-4.74,7.88-4.92Z" transform="translate(-16.02 -30.14)" style="opacity:0.9090909063816071"/><path d="M133.63,249.21,24.9,186.43c-4.29-2.48-3.76-6.81,1.2-9.67l61.71-35.63c5-2.86,12.46-3.17,16.75-.69L213.3,203.21c4.29,2.48,3.75,6.82-1.2,9.68l-61.71,35.63C145.43,251.38,137.93,251.69,133.63,249.21Z" transform="translate(-16.02 -30.14)"/></g><path d="M133.63,249.11,24.9,186.33c-1.91-1.1-2.87-2.58-2.9-4.12v-5.39c0-1.88,1.42,1.39,4.1-.16L87.81,141c5-2.86,12.46-3.17,16.75-.69L213.3,203.12c1.43.82,2.47-2.69,2.84-1.57.13.37.05,5.3.05,5.68.05,1.93-1.34,4-4.09,5.56l-61.71,35.63C145.43,251.28,137.93,251.59,133.63,249.11Z" transform="translate(-16.02 -30.14)" style="fill:url(#b)"/><path d="M133.63,243.82,24.9,181c-4.29-2.47-3.76-6.8,1.2-9.67l61.71-35.62c5-2.87,12.46-3.18,16.75-.7L213.3,197.83c4.29,2.48,3.75,6.81-1.2,9.67l-61.71,35.63C145.43,246,137.93,246.3,133.63,243.82Z" transform="translate(-16.02 -30.14)" style="fill:url(#c)"/><path d="M140.91,243.33a12.57,12.57,0,0,1-6.19-1.39L26,179.17c-.67-.4-1.81-1.22-1.81-2.32s1.13-2.51,3-3.59L88.9,137.63a17.24,17.24,0,0,1,8.39-2.08,12.71,12.71,0,0,1,6.19,1.38l108.73,62.78c.68.39,1.81,1.21,1.81,2.32s-1.12,2.5-3,3.59L149.3,241.25A17.26,17.26,0,0,1,140.91,243.33Z" transform="translate(-16.02 -30.14)" style="fill:url(#d)"/><path d="M212.1,206.61l-61.71,35.62c-5,2.86-12.46,3.17-16.76.7L24.9,180.15A5.16,5.16,0,0,1,22,176.34c-.22,1.76.72,3.46,2.87,4.7l108.73,62.78c4.3,2.48,11.8,2.17,16.76-.69L212.1,207.5c2.9-1.67,4.27-3.85,4.06-5.86C215.94,203.38,214.57,205.17,212.1,206.61Z" transform="translate(-16.02 -30.14)" style="fill:#fff"/><path d="M212,195.41,105,133.67a9,9,0,0,1-4.13-10.23l23.3-80.6a9,9,0,0,1,13.08-5.28l107,61.75a9,9,0,0,1,4.13,10.23L225,190.13A9,9,0,0,1,212,195.41Z" transform="translate(-16.02 -30.14)" style="opacity:0.8;fill:url(#e)"/><path d="M210.46,195.41,103.51,133.67a9,9,0,0,1-4.12-10.23l23.29-80.6a9,9,0,0,1,13.09-5.28L242.71,99.31a9,9,0,0,1,4.13,10.23l-23.3,80.59A9,9,0,0,1,210.46,195.41Z" transform="translate(-16.02 -30.14)" style="fill:url(#f)"/><path d="M227.36,191.1a9.31,9.31,0,0,1-4.64-1.25L115.78,128.1a9.28,9.28,0,0,1-4.29-10.63l23.3-80.59a9.29,9.29,0,0,1,13.59-5.49l107,61.75a9.29,9.29,0,0,1,4.29,10.63l-23.3,80.59A9.36,9.36,0,0,1,227.36,191.1ZM143.74,30.84a8.66,8.66,0,0,0-8.28,6.23l-23.29,80.6a8.57,8.57,0,0,0,4,9.82l107,61.75a8.54,8.54,0,0,0,4.28,1.16,8.65,8.65,0,0,0,8.28-6.23l23.3-80.6a8.56,8.56,0,0,0-4-9.82L148,32A8.58,8.58,0,0,0,143.74,30.84Z" transform="translate(-16.02 -30.14)" style="mix-blend-mode:exclusion;fill:url(#g)"/><path d="M214.92,193.63a5.88,5.88,0,0,1-3-.81L105,131.08a6,6,0,0,1-2.75-6.82l23.3-80.59a6,6,0,0,1,5.74-4.32,5.79,5.79,0,0,1,3,.81L241.21,101.9a5.94,5.94,0,0,1,2.75,6.81l-23.29,80.6A6,6,0,0,1,214.92,193.63Z" transform="translate(-16.02 -30.14)" style="opacity:0.2;fill:url(#h)"/><path d="M214.81,193.42a5.87,5.87,0,0,1-3-.8L105.29,131.09a6,6,0,0,1-2.74-6.79L125.78,44a6,6,0,0,1,5.72-4.3,5.85,5.85,0,0,1,3,.8L241,102a5.93,5.93,0,0,1,2.74,6.79l-23.23,80.35A6,6,0,0,1,214.81,193.42Z" transform="translate(-16.02 -30.14)" style="opacity:0.2727272748947145;fill:url(#i)"/><path d="M214.7,193.21a5.84,5.84,0,0,1-2.95-.8l-106.17-61.3a5.9,5.9,0,0,1-2.73-6.76L126,44.24A6,6,0,0,1,131.71,40a5.8,5.8,0,0,1,2.94.8l106.18,61.3a5.91,5.91,0,0,1,2.73,6.76L220.4,188.92A6,6,0,0,1,214.7,193.21Z" transform="translate(-16.02 -30.14)" style="opacity:0.3454545471403335;fill:url(#j)"/><path d="M214.58,193a5.86,5.86,0,0,1-2.93-.79L105.86,131.13a5.89,5.89,0,0,1-2.72-6.74l23.09-79.87a5.94,5.94,0,0,1,5.68-4.27,5.77,5.77,0,0,1,2.93.8l105.79,61.07a5.88,5.88,0,0,1,2.72,6.74l-23.08,79.87A6,6,0,0,1,214.58,193Z" transform="translate(-16.02 -30.14)" style="opacity:0.41818181938595256;fill:url(#k)"/><path d="M214.47,192.79a5.82,5.82,0,0,1-2.92-.79L106.14,131.14a5.86,5.86,0,0,1-2.71-6.71l23-79.63a5.92,5.92,0,0,1,5.66-4.25,5.78,5.78,0,0,1,2.93.79l105.4,60.86a5.85,5.85,0,0,1,2.71,6.71l-23,79.63A5.92,5.92,0,0,1,214.47,192.79Z" transform="translate(-16.02 -30.14)" style="opacity:0.4909090916315716;fill:url(#l)"/><path d="M214.36,192.58a5.75,5.75,0,0,1-2.91-.78l-105-60.64a5.86,5.86,0,0,1-2.7-6.69l23-79.38a5.89,5.89,0,0,1,5.64-4.24,5.72,5.72,0,0,1,2.92.79l105,60.63A5.86,5.86,0,0,1,243,109L220,188.34A5.89,5.89,0,0,1,214.36,192.58Z" transform="translate(-16.02 -30.14)" style="opacity:0.5636363638771906;fill:url(#m)"/><path d="M214.25,192.38a5.78,5.78,0,0,1-2.91-.79L106.71,131.18a5.82,5.82,0,0,1-2.69-6.67L126.9,45.37a5.85,5.85,0,0,1,5.62-4.22,5.76,5.76,0,0,1,2.9.78l104.63,60.41a5.82,5.82,0,0,1,2.69,6.67l-22.87,79.14A5.88,5.88,0,0,1,214.25,192.38Z" transform="translate(-16.02 -30.14)" style="opacity:0.6363636361228096;fill:url(#n)"/><path d="M214.13,192.17a5.71,5.71,0,0,1-2.89-.79L107,131.19a5.8,5.8,0,0,1-2.68-6.64l22.81-78.9a5.84,5.84,0,0,1,5.6-4.2,5.7,5.7,0,0,1,2.89.78l104.25,60.19a5.8,5.8,0,0,1,2.68,6.64L219.73,188A5.84,5.84,0,0,1,214.13,192.17Z" transform="translate(-16.02 -30.14)" style="opacity:0.7090909083684286;fill:url(#o)"/><path d="M214,192a5.69,5.69,0,0,1-2.88-.78l-103.87-60a5.77,5.77,0,0,1-2.67-6.61l22.74-78.66a5.84,5.84,0,0,1,5.58-4.2,5.68,5.68,0,0,1,2.88.79l103.87,60a5.8,5.8,0,0,1,2.67,6.62L219.6,187.77A5.83,5.83,0,0,1,214,192Z" transform="translate(-16.02 -30.14)" style="opacity:0.7818181806140476;fill:url(#p)"/><path d="M213.91,191.75A5.63,5.63,0,0,1,211,191L107.56,131.23a5.74,5.74,0,0,1-2.66-6.59l22.67-78.42A5.8,5.8,0,0,1,133.12,42a5.73,5.73,0,0,1,2.87.78l103.48,59.75a5.76,5.76,0,0,1,2.67,6.59l-22.68,78.41A5.8,5.8,0,0,1,213.91,191.75Z" transform="translate(-16.02 -30.14)" style="opacity:0.8545454528596667;fill:url(#q)"/><path d="M213.8,191.54a5.68,5.68,0,0,1-2.86-.77l-103.1-59.52a5.75,5.75,0,0,1-2.65-6.57l22.6-78.17a5.78,5.78,0,0,1,5.53-4.17,5.59,5.59,0,0,1,2.86.78l103.1,59.52a5.74,5.74,0,0,1,2.65,6.57l-22.6,78.17A5.78,5.78,0,0,1,213.8,191.54Z" transform="translate(-16.02 -30.14)" style="opacity:0.9272727251052857;fill:url(#r)"/><path d="M213.68,191.34a5.68,5.68,0,0,1-2.85-.78l-102.71-59.3a5.72,5.72,0,0,1-2.64-6.54L128,46.79a5.77,5.77,0,0,1,5.52-4.15,5.58,5.58,0,0,1,2.85.78l102.71,59.29a5.73,5.73,0,0,1,2.64,6.55L219.2,187.19A5.78,5.78,0,0,1,213.68,191.34Z" transform="translate(-16.02 -30.14)" style="fill:url(#s)"/><path d="M242.71,99.31,135.77,37.56a8.85,8.85,0,0,0-6.14-1,8.86,8.86,0,0,1,5.44,1.13L242,99.41a9,9,0,0,1,4.13,10.23l-23.3,80.59a8.93,8.93,0,0,1-7,6.32,8.94,8.94,0,0,0,7.65-6.42l23.3-80.59A9,9,0,0,0,242.71,99.31Z" transform="translate(-16.02 -30.14)" style="fill:#fff"/><path d="M200.48,222.73c4.93,12-5.72,27.76-23.81,35.19s-36.73,3.72-41.66-8.28,5.72-27.76,23.81-35.19S195.55,210.73,200.48,222.73Z" transform="translate(-16.02 -30.14)" style="mix-blend-mode:color-dodge;fill:url(#t)"/><path d="M111,149.5c2.88,8.37-6.28,19.11-20.46,24s-28,2.05-30.88-6.32,6.28-19.11,20.46-24S108.15,141.13,111,149.5Z" transform="translate(-16.02 -30.14)" style="mix-blend-mode:color-dodge;fill:url(#u)"/><path d="M153,220.7l-88.3-51c-1.77-1-1.55-2.8.49-4L98.31,146.6a7.65,7.65,0,0,1,6.89-.29l88.3,51c1.77,1,1.55,2.8-.49,4l-33.15,19.14A7.67,7.67,0,0,1,153,220.7Z" transform="translate(-16.02 -30.14)" style="fill:url(#v)"/><path d="M100.24,150.32l5.66,3.27a2.85,2.85,0,0,0,2.59,0c.72-.41.72-1.08,0-1.5l-5.66-3.26a2.87,2.87,0,0,0-2.6,0A.79.79,0,0,0,100.24,150.32Zm9.69,5.6,2.68,1.54a2.85,2.85,0,0,0,2.59,0,.79.79,0,0,0,0-1.5l-2.68-1.55a2.87,2.87,0,0,0-2.6,0C109.2,154.83,109.21,155.5,109.93,155.92Zm6.71,3.87,2.68,1.55a2.88,2.88,0,0,0,2.59,0c.72-.41.71-1.08,0-1.5l-2.68-1.55a2.9,2.9,0,0,0-2.6,0A.79.79,0,0,0,116.64,159.79Zm6.71,3.87,2.68,1.55a2.85,2.85,0,0,0,2.59,0c.72-.42.72-1.09,0-1.5l-2.68-1.55a2.87,2.87,0,0,0-2.6,0A.79.79,0,0,0,123.35,163.66Zm6.71,3.88,2.68,1.55a2.88,2.88,0,0,0,2.59,0,.79.79,0,0,0,0-1.5L132.65,166a2.87,2.87,0,0,0-2.6,0C129.33,166.45,129.34,167.12,130.06,167.54Zm6.71,3.87,2.67,1.55a2.87,2.87,0,0,0,2.6,0c.72-.41.71-1.08,0-1.5l-2.69-1.54a2.85,2.85,0,0,0-2.59,0A.79.79,0,0,0,136.77,171.41Zm6.71,3.88,2.68,1.54a2.85,2.85,0,0,0,2.59,0c.72-.42.72-1.09,0-1.5l-2.69-1.55a2.85,2.85,0,0,0-2.59,0C142.75,174.2,142.76,174.87,143.48,175.29Zm6.7,3.87,2.68,1.55a2.9,2.9,0,0,0,2.6,0c.72-.41.71-1.08,0-1.5l-2.69-1.55a2.88,2.88,0,0,0-2.59,0C149.46,178.07,149.47,178.74,150.18,179.16Zm6.71,3.87,2.68,1.55a2.87,2.87,0,0,0,2.6,0,.79.79,0,0,0,0-1.5l-2.69-1.55a2.85,2.85,0,0,0-2.59,0A.79.79,0,0,0,156.89,183Zm6.71,3.88,2.68,1.55a2.9,2.9,0,0,0,2.6,0,.79.79,0,0,0,0-1.5l-2.69-1.55a2.88,2.88,0,0,0-2.59,0C162.88,185.82,162.88,186.49,163.6,186.91Zm6.71,3.87,2.69,1.55a2.82,2.82,0,0,0,2.59,0c.72-.41.71-1.08,0-1.5l-2.69-1.55a2.88,2.88,0,0,0-2.59,0C169.59,189.7,169.59,190.37,170.31,190.78Zm6.71,3.88,2.68,1.54a2.87,2.87,0,0,0,2.6,0,.79.79,0,0,0,0-1.5l-2.67-1.55a2.87,2.87,0,0,0-2.6,0C176.3,193.57,176.3,194.24,177,194.66Zm6.85,4,2.68,1.55a2.9,2.9,0,0,0,2.6,0c.72-.41.71-1.08,0-1.5l-2.68-1.54a2.85,2.85,0,0,0-2.59,0C183.15,197.52,183.16,198.19,183.87,198.61ZM94.2,154l2.33,1.34a3.23,3.23,0,0,0,3,0l2.31-1.33a.9.9,0,0,0,0-1.71L99.46,151a3.28,3.28,0,0,0-3,0l-2.31,1.33A.9.9,0,0,0,94.2,154Zm12,5.22,2.31-1.33a.9.9,0,0,0,0-1.7l-2.32-1.34a3.25,3.25,0,0,0-3,0l-2.3,1.33a.9.9,0,0,0,0,1.71l2.32,1.34A3.28,3.28,0,0,0,106.19,159.23Zm1.43,2.53,2.32,1.34a3.25,3.25,0,0,0,3,0l2.31-1.33a.91.91,0,0,0,0-1.71l-2.32-1.34a3.25,3.25,0,0,0-3,0l-2.3,1.32C106.8,160.53,106.8,161.29,107.62,161.76Zm6.71,3.88,2.32,1.34a3.28,3.28,0,0,0,3,0l2.31-1.33a.9.9,0,0,0,0-1.71l-2.32-1.34a3.28,3.28,0,0,0-3,0l-2.31,1.33C113.51,164.4,113.51,165.16,114.33,165.64Zm14.29,2.18-2.32-1.34a3.25,3.25,0,0,0-3,0L121,167.8a.9.9,0,0,0,0,1.71l2.32,1.34a3.31,3.31,0,0,0,3,0l2.31-1.34C129.44,169.06,129.43,168.29,128.62,167.82Zm6.7,3.87L133,170.35a3.25,3.25,0,0,0-3,0l-2.31,1.33a.9.9,0,0,0,0,1.7l2.32,1.34a3.25,3.25,0,0,0,3,0l2.3-1.33A.9.9,0,0,0,135.32,171.69Zm6.72,3.87-2.33-1.34a3.26,3.26,0,0,0-3,0l-2.31,1.33c-.81.47-.81,1.23,0,1.71l2.32,1.34a3.28,3.28,0,0,0,3,0l2.3-1.33C142.86,176.8,142.85,176,142,175.56Zm6.71,3.88-2.32-1.34a3.28,3.28,0,0,0-3,0l-2.31,1.33a.9.9,0,0,0,0,1.71l2.32,1.34a3.28,3.28,0,0,0,3,0l2.3-1.33A.9.9,0,0,0,148.75,179.44Zm6.71,3.87L153.14,182a3.28,3.28,0,0,0-3,0l-2.31,1.33c-.81.47-.81,1.23,0,1.71l2.32,1.34a3.28,3.28,0,0,0,3,0l2.3-1.33C156.28,184.55,156.28,183.79,155.46,183.31Zm6.71,3.88-2.32-1.34a3.25,3.25,0,0,0-3,0l-2.31,1.33a.9.9,0,0,0,0,1.71l2.32,1.34a3.28,3.28,0,0,0,3,0l2.3-1.33A.9.9,0,0,0,162.17,187.19Zm-.87,5.56,2.32,1.34a3.25,3.25,0,0,0,3,0l2.3-1.33a.9.9,0,0,0,0-1.71l-2.33-1.34a3.29,3.29,0,0,0-3,0l-2.31,1.34A.9.9,0,0,0,161.3,192.75Zm14.29,2.19-2.33-1.35a3.26,3.26,0,0,0-2.95,0L168,194.92c-.81.47-.81,1.23,0,1.71l2.32,1.34a3.28,3.28,0,0,0,3,0l2.3-1.33A.9.9,0,0,0,175.59,194.94Zm9.82,5.67-5.3-3.06a3.23,3.23,0,0,0-3,0l-2.31,1.33a.9.9,0,0,0,0,1.7l5.3,3.06a3.23,3.23,0,0,0,3,0l2.31-1.33A.9.9,0,0,0,185.41,200.61ZM88,157.6l5.3,3.06a3.23,3.23,0,0,0,2.95,0l2.31-1.34a.9.9,0,0,0,0-1.7l-5.3-3.06a3.23,3.23,0,0,0-2.95,0L88,155.9A.9.9,0,0,0,88,157.6Zm9.69,5.6,2.32,1.33a3.23,3.23,0,0,0,3,0l2.31-1.33c.81-.47.81-1.23,0-1.71l-2.32-1.34a3.28,3.28,0,0,0-3,0l-2.3,1.33C96.85,162,96.86,162.72,97.68,163.2Zm9,5.21a3.26,3.26,0,0,0,3,0l2.31-1.34a.9.9,0,0,0,0-1.7L109.64,164a3.28,3.28,0,0,0-3,0l-2.3,1.33a.9.9,0,0,0,0,1.71Zm6.71,3.87a3.23,3.23,0,0,0,3,0l2.31-1.33a.9.9,0,0,0,0-1.71l-2.32-1.34a3.28,3.28,0,0,0-3,0l-2.3,1.33c-.82.47-.81,1.23,0,1.7Zm6.68-.5-2.3,1.33c-.82.47-.81,1.23,0,1.71l2.31,1.34a3.28,3.28,0,0,0,3,0l2.31-1.33a.9.9,0,0,0,0-1.7l-2.32-1.35A3.28,3.28,0,0,0,120.1,171.78Zm6.86,3.79-2.6,1.49a.82.82,0,0,0,0,1.55l2.61,1.51a3,3,0,0,0,2.67,0l2.59-1.5c.74-.42.73-1.11,0-1.54l-2.6-1.5A3,3,0,0,0,127,175.57Zm6.7,3.88-2.59,1.49a.81.81,0,0,0,0,1.54l2.61,1.51a3,3,0,0,0,2.67,0L139,182.5a.81.81,0,0,0,0-1.54l-2.6-1.51A3,3,0,0,0,133.66,179.45Zm6.71,3.87-2.59,1.49a.82.82,0,0,0,0,1.55l2.61,1.5a3,3,0,0,0,2.67,0l2.59-1.5c.74-.42.73-1.11,0-1.54l-2.6-1.51A3,3,0,0,0,140.37,183.32Zm6.71,3.87-2.58,1.5a.81.81,0,0,0,0,1.54l2.61,1.51a3,3,0,0,0,2.67,0l2.59-1.5c.74-.42.73-1.11,0-1.54l-2.6-1.5A3,3,0,0,0,147.08,187.19Zm6.71,3.88-2.59,1.49a.82.82,0,0,0,0,1.55l2.61,1.5a2.92,2.92,0,0,0,2.67,0l2.59-1.49c.74-.43.73-1.12,0-1.55l-2.6-1.5A3,3,0,0,0,153.79,191.07Zm9.41,8.42,2.59-1.5c.73-.42.73-1.11,0-1.54l-2.6-1.5a3,3,0,0,0-2.68,0l-2.59,1.5c-.73.42-.73,1.11,0,1.54l2.61,1.5A3,3,0,0,0,163.2,199.49Zm6.71,3.87,2.59-1.49a.82.82,0,0,0,0-1.55l-2.61-1.5a3,3,0,0,0-2.67,0l-2.59,1.5a.81.81,0,0,0,0,1.54l2.61,1.51A2.92,2.92,0,0,0,169.91,203.36Zm9.43.92-2.6-1.51a3,3,0,0,0-2.68,0l-2.59,1.5c-.73.42-.73,1.11,0,1.54l2.61,1.5a2.92,2.92,0,0,0,2.67,0l2.59-1.49A.81.81,0,0,0,179.34,204.28ZM81.63,161.11,90,166a3,3,0,0,0,2.68,0l2.59-1.5c.73-.42.73-1.11,0-1.54l-8.42-4.85a3,3,0,0,0-2.67,0l-2.59,1.5C80.89,160,80.89,160.68,81.63,161.11Zm12.52,7.23,2.6,1.5a3,3,0,0,0,2.68,0l2.59-1.49a.81.81,0,0,0,0-1.54L99.4,165.3a2.92,2.92,0,0,0-2.67,0l-2.59,1.49C93.4,167.22,93.41,167.91,94.15,168.34Zm6.71,3.87,2.6,1.5a3,3,0,0,0,2.68,0l2.58-1.5c.74-.42.74-1.11,0-1.54l-2.61-1.5a3,3,0,0,0-2.67,0l-2.59,1.5C100.11,171.09,100.12,171.78,100.86,172.21Zm6.71,3.87,2.6,1.51a3,3,0,0,0,2.67,0l2.59-1.49c.74-.43.74-1.12,0-1.54l-2.61-1.51a3,3,0,0,0-2.67,0l-2.59,1.5C106.82,175,106.83,175.65,107.57,176.08Zm12,5.39,2.59-1.5c.73-.42.73-1.11,0-1.54l-2.61-1.51a3,3,0,0,0-2.67,0l-2.59,1.5c-.74.42-.73,1.11,0,1.54l2.6,1.5A3,3,0,0,0,119.56,181.47Zm6.7,3.87,2.6-1.5c.73-.42.73-1.11,0-1.54l-2.61-1.5a3,3,0,0,0-2.67,0l-2.59,1.5c-.74.42-.73,1.11,0,1.54l2.6,1.51A3,3,0,0,0,126.26,185.34Zm6.71,3.87,2.59-1.49c.74-.43.74-1.12,0-1.54L133,184.67a2.92,2.92,0,0,0-2.67,0l-2.59,1.49a.81.81,0,0,0,0,1.54l2.61,1.51A2.9,2.9,0,0,0,133,189.21Zm6.71,3.88,2.59-1.5c.74-.42.74-1.11,0-1.54l-2.61-1.51a3,3,0,0,0-2.67,0L134.4,190c-.74.42-.73,1.11,0,1.54l2.6,1.5A3,3,0,0,0,139.68,193.09Zm6.71,3.87,2.59-1.49a.82.82,0,0,0,0-1.55l-2.6-1.5a2.92,2.92,0,0,0-2.67,0l-2.59,1.49a.81.81,0,0,0,0,1.54l2.6,1.51A3,3,0,0,0,146.39,197Zm6.72,3.88,2.58-1.5c.74-.42.73-1.11,0-1.54l-2.6-1.51a3,3,0,0,0-2.67,0l-2.59,1.49c-.74.43-.73,1.12,0,1.55l2.6,1.5A3,3,0,0,0,153.11,200.84Zm1.43,2.36,2.6,1.5a3,3,0,0,0,2.67,0l2.59-1.5c.74-.42.74-1.11,0-1.54l-2.61-1.5a3,3,0,0,0-2.67,0l-2.59,1.5C153.79,202.08,153.8,202.77,154.54,203.2Zm18.59,4.67L166.5,204a2.92,2.92,0,0,0-2.67,0l-2.59,1.49a.81.81,0,0,0,0,1.54l6.62,3.83a3,3,0,0,0,2.68,0l2.58-1.5A.81.81,0,0,0,173.13,207.87Zm-97.69-43,11.94,6.9a3.35,3.35,0,0,0,3,0l2.24-1.3a.92.92,0,0,0,0-1.74L80.7,161.85a3.35,3.35,0,0,0-3,0l-2.25,1.3A.92.92,0,0,0,75.44,164.88Zm16.39,9.46,2.26,1.31a3.35,3.35,0,0,0,3,0l2.24-1.29a.92.92,0,0,0,0-1.74l-2.26-1.31a3.35,3.35,0,0,0-3,0l-2.24,1.29A.92.92,0,0,0,91.83,174.34Zm6.71,3.88,2.26,1.3a3.32,3.32,0,0,0,3,0l2.24-1.3a.92.92,0,0,0,0-1.74l-2.26-1.3a3.32,3.32,0,0,0-3,0l-2.24,1.3A.92.92,0,0,0,98.54,178.22Zm6.71,3.87,2.26,1.3a3.32,3.32,0,0,0,3,0l2.24-1.3a.92.92,0,0,0,0-1.74l-2.26-1.3a3.33,3.33,0,0,0-3,0l-2.25,1.3A.92.92,0,0,0,105.25,182.09ZM112,186l2.26,1.3a3.38,3.38,0,0,0,3,0l2.24-1.3a.92.92,0,0,0,0-1.74l-2.26-1.31a3.33,3.33,0,0,0-3,0L112,184.22A.92.92,0,0,0,112,186Zm6.71,3.87,2.26,1.3a3.32,3.32,0,0,0,3,0l2.24-1.3a.92.92,0,0,0,0-1.74l-2.26-1.3a3.35,3.35,0,0,0-3,0l-2.24,1.3A.92.92,0,0,0,118.67,189.84Zm6.71,3.87,2.26,1.31a3.35,3.35,0,0,0,3,0l2.24-1.29a.92.92,0,0,0,0-1.74l-2.26-1.31a3.33,3.33,0,0,0-3,0L125.37,192A.92.92,0,0,0,125.38,193.71Zm6.71,3.88,2.26,1.3a3.35,3.35,0,0,0,3,0l2.24-1.3a.92.92,0,0,0,0-1.74l-2.26-1.31a3.33,3.33,0,0,0-3,0l-2.25,1.29A.92.92,0,0,0,132.09,197.59Zm6.71,3.87,2.26,1.31a3.35,3.35,0,0,0,3,0l2.24-1.29a.92.92,0,0,0,0-1.75l-2.26-1.3a3.32,3.32,0,0,0-3,0l-2.24,1.3A.92.92,0,0,0,138.8,201.46Zm6.71,3.88,2.26,1.3a3.38,3.38,0,0,0,3,0l2.24-1.3a.92.92,0,0,0,0-1.74l-2.26-1.31a3.35,3.35,0,0,0-3,0l-2.24,1.29C144.67,204.07,144.67,204.85,145.51,205.34Zm6.71,3.87,2.26,1.3a3.32,3.32,0,0,0,3,0l2.24-1.3a.92.92,0,0,0,0-1.74l-2.26-1.3a3.32,3.32,0,0,0-3,0l-2.24,1.3A.92.92,0,0,0,152.22,209.21Zm14.37,2.23-2.26-1.3a3.32,3.32,0,0,0-3,0l-2.24,1.3a.92.92,0,0,0,0,1.74l2.26,1.3a3.33,3.33,0,0,0,3,0l2.25-1.3A.92.92,0,0,0,166.59,211.44Zm-86.87-43-5.24-3a3.32,3.32,0,0,0-3,0l-2.24,1.3a.92.92,0,0,0,0,1.74l5.23,3a3.32,3.32,0,0,0,3,0l2.25-1.3A.92.92,0,0,0,79.72,168.46Zm6.71,3.88L84.17,171a3.32,3.32,0,0,0-3,0l-2.24,1.29c-.84.48-.83,1.26,0,1.74l2.25,1.31a3.35,3.35,0,0,0,3,0l2.25-1.29A.92.92,0,0,0,86.43,172.34Zm6.71,3.87-2.26-1.31a3.35,3.35,0,0,0-3,0l-2.24,1.3c-.84.47-.83,1.25,0,1.74l2.25,1.3a3.35,3.35,0,0,0,3,0l2.25-1.3A.92.92,0,0,0,93.14,176.21Zm47,27.12L97.59,178.78a3.35,3.35,0,0,0-3,0l-2.24,1.3c-.84.48-.83,1.26,0,1.74l42.51,24.55a3.35,3.35,0,0,0,3,0l2.25-1.29C141,204.59,140.94,203.81,140.1,203.33Zm6.71,3.87-2.25-1.3a3.32,3.32,0,0,0-3,0l-2.24,1.29a.92.92,0,0,0,0,1.75l2.26,1.3a3.32,3.32,0,0,0,3,0l2.24-1.3A.92.92,0,0,0,146.81,207.2Zm6.72,3.87-2.26-1.3a3.35,3.35,0,0,0-3,0L146,211.06a.92.92,0,0,0,0,1.74l2.26,1.31a3.35,3.35,0,0,0,3,0l2.24-1.3C154.36,212.34,154.36,211.56,153.53,211.07Zm6.84,4-2.25-1.31a3.35,3.35,0,0,0-3,0l-2.25,1.3a.91.91,0,0,0,0,1.73l2.26,1.31a3.32,3.32,0,0,0,3,0l2.25-1.29C161.22,216.29,161.21,215.51,160.37,215Z" transform="translate(-16.02 -30.14)" style="opacity:0.30000000000000004;mix-blend-mode:screen;fill:url(#w)"/><path d="M86.5,154.23l-27.2-15.7a3.78,3.78,0,0,1-2.17-3.2c0-1.49,1.09-3,3-4.07L91.6,113.09l.36.63L60.49,131.89c-1.67,1-2.63,2.22-2.63,3.44a3.08,3.08,0,0,0,1.81,2.57l27.19,15.7Z" transform="translate(-16.02 -30.14)" style="mix-blend-mode:exclusion;fill:url(#x)"/><path d="M71.3,129.4A7.46,7.46,0,1,1,63.85,122,7.46,7.46,0,0,1,71.3,129.4Z" transform="translate(-16.02 -30.14)" style="mix-blend-mode:screen;fill:url(#y)"/><path d="M227.37,73.13a7.46,7.46,0,1,1-7.46-7.46A7.45,7.45,0,0,1,227.37,73.13Z" transform="translate(-16.02 -30.14)" style="mix-blend-mode:screen;fill:url(#z)"/><path d="M178.71,249.35a7.46,7.46,0,1,1-7.46-7.45A7.46,7.46,0,0,1,178.71,249.35Z" transform="translate(-16.02 -30.14)" style="mix-blend-mode:screen;fill:url(#aa)"/><path d="M202.6,104.42l-.91-.55.8-2.82.14-.46.16-.5a2.42,2.42,0,0,1-.41.14l-.63.16-.26-.88,1.75-.43.74.45Z" transform="translate(-16.02 -30.14)" style="fill:url(#ab)"/><path d="M207.63,104.57a3.15,3.15,0,0,1-.91,1.67,1.13,1.13,0,0,1-1.32-.07,2,2,0,0,1-.94-1.3,4.39,4.39,0,0,1,.15-2.11,3.15,3.15,0,0,1,.91-1.68,1.12,1.12,0,0,1,1.31.06,2,2,0,0,1,.95,1.32A4.39,4.39,0,0,1,207.63,104.57Zm-2.11-1.27a4.51,4.51,0,0,0-.23,1.37.76.76,0,0,0,.35.67.4.4,0,0,0,.57-.12,3.69,3.69,0,0,0,.51-1.2,4.44,4.44,0,0,0,.22-1.38.77.77,0,0,0-.34-.66.41.41,0,0,0-.58.12A3.85,3.85,0,0,0,205.52,103.3Z" transform="translate(-16.02 -30.14)" style="fill:url(#ac)"/><path d="M209.79,108.72l-.91-.55.81-2.83.14-.46.15-.49a2.14,2.14,0,0,1-.4.14l-.63.16-.26-.88,1.74-.43.75.45Z" transform="translate(-16.02 -30.14)" style="fill:url(#ad)"/><path d="M214.83,108.87a3.15,3.15,0,0,1-.91,1.67,1.13,1.13,0,0,1-1.32-.07,1.94,1.94,0,0,1-.94-1.3,4.23,4.23,0,0,1,.15-2.1,3.08,3.08,0,0,1,.91-1.69,1.13,1.13,0,0,1,1.31.06,2,2,0,0,1,.95,1.32A4.39,4.39,0,0,1,214.83,108.87Zm-2.11-1.27a4.21,4.21,0,0,0-.23,1.37.74.74,0,0,0,.35.67.4.4,0,0,0,.57-.12,3.69,3.69,0,0,0,.51-1.2,4.44,4.44,0,0,0,.22-1.38.76.76,0,0,0-.35-.66.4.4,0,0,0-.57.12A3.62,3.62,0,0,0,212.72,107.6Z" transform="translate(-16.02 -30.14)" style="fill:url(#ae)"/><path d="M218.42,111a3.08,3.08,0,0,1-.9,1.68,1.13,1.13,0,0,1-1.32-.07,2,2,0,0,1-.94-1.3,4.16,4.16,0,0,1,.15-2.11,3.08,3.08,0,0,1,.91-1.68,1.13,1.13,0,0,1,1.31.06,2,2,0,0,1,.94,1.31A4.15,4.15,0,0,1,218.42,111Zm-2.1-1.26a4.23,4.23,0,0,0-.23,1.38.74.74,0,0,0,.35.66.4.4,0,0,0,.57-.12,3.69,3.69,0,0,0,.51-1.2,4.77,4.77,0,0,0,.22-1.38.76.76,0,0,0-.35-.66.4.4,0,0,0-.57.11A3.81,3.81,0,0,0,216.32,109.75Z" transform="translate(-16.02 -30.14)" style="fill:url(#af)"/><path d="M222,113.16a3,3,0,0,1-.91,1.68,1.12,1.12,0,0,1-1.31-.07,2,2,0,0,1-1-1.3,4.29,4.29,0,0,1,.16-2.11,3.08,3.08,0,0,1,.91-1.68,1.12,1.12,0,0,1,1.31.06,2,2,0,0,1,1,1.32A4.24,4.24,0,0,1,222,113.16Zm-2.11-1.26a4.85,4.85,0,0,0-.23,1.37.77.77,0,0,0,.36.67.4.4,0,0,0,.57-.12,3.73,3.73,0,0,0,.5-1.2,4.52,4.52,0,0,0,.23-1.38.76.76,0,0,0-.35-.66.4.4,0,0,0-.57.11A3.77,3.77,0,0,0,219.91,111.9Z" transform="translate(-16.02 -30.14)" style="fill:url(#ag)"/><path d="M224.19,117.32l-.91-.55.8-2.83.14-.46.16-.49a2.42,2.42,0,0,1-.41.14l-.62.16-.27-.89,1.75-.42.75.45Z" transform="translate(-16.02 -30.14)" style="fill:url(#ah)"/><path d="M227.79,119.47l-.91-.55.8-2.83.14-.46.16-.5a2,2,0,0,1-.41.15l-.62.16-.27-.89,1.75-.42.75.45Z" transform="translate(-16.02 -30.14)" style="fill:url(#ai)"/><path d="M201.69,110.63a3.06,3.06,0,0,1-.91,1.68,1.12,1.12,0,0,1-1.31-.07,2,2,0,0,1-.94-1.31,4.12,4.12,0,0,1,.15-2.1,3.19,3.19,0,0,1,.91-1.69,1.12,1.12,0,0,1,1.31.07,2,2,0,0,1,.95,1.31A4.28,4.28,0,0,1,201.69,110.63Zm-2.1-1.26a4.51,4.51,0,0,0-.23,1.37.74.74,0,0,0,.35.67.4.4,0,0,0,.57-.12,3.51,3.51,0,0,0,.5-1.2,4.23,4.23,0,0,0,.23-1.38.76.76,0,0,0-.35-.66.4.4,0,0,0-.57.11A3.7,3.7,0,0,0,199.59,109.37Z" transform="translate(-16.02 -30.14)" style="fill:url(#aj)"/><path d="M203.86,114.78l-.91-.54.8-2.83.14-.46.16-.5a2.45,2.45,0,0,1-.41.15l-.62.16-.26-.89,1.74-.42.75.45Z" transform="translate(-16.02 -30.14)" style="fill:url(#ak)"/><path d="M207.46,116.93l-.91-.54.8-2.83.14-.46.16-.5a2.83,2.83,0,0,1-.41.15l-.62.16-.26-.89,1.74-.42.75.45Z" transform="translate(-16.02 -30.14)" style="fill:url(#al)"/><path d="M212.49,117.08a3.1,3.1,0,0,1-.91,1.68,1.12,1.12,0,0,1-1.31-.07,2,2,0,0,1-1-1.31,4.26,4.26,0,0,1,.16-2.1,3.06,3.06,0,0,1,.91-1.69,1.12,1.12,0,0,1,1.31.07,1.93,1.93,0,0,1,.94,1.31A4.26,4.26,0,0,1,212.49,117.08Zm-2.11-1.26a4.85,4.85,0,0,0-.23,1.37.77.77,0,0,0,.36.67.41.41,0,0,0,.57-.12,3.73,3.73,0,0,0,.5-1.2,4.52,4.52,0,0,0,.23-1.38.81.81,0,0,0-.35-.67.4.4,0,0,0-.57.12A3.67,3.67,0,0,0,210.38,115.82Z" transform="translate(-16.02 -30.14)" style="fill:url(#am)"/><path d="M214.66,121.23l-.91-.54.8-2.83.14-.46.16-.5-.41.15-.62.16-.27-.89,1.75-.42.75.45Z" transform="translate(-16.02 -30.14)" style="fill:url(#an)"/><path d="M218.26,123.38l-.91-.54.8-2.83.14-.46.16-.5-.41.15-.62.16-.27-.89,1.75-.42.74.45Z" transform="translate(-16.02 -30.14)" style="fill:url(#ao)"/><path d="M223.29,123.53a3.16,3.16,0,0,1-.91,1.68,1.12,1.12,0,0,1-1.31-.07,2,2,0,0,1-.95-1.31,4.36,4.36,0,0,1,.15-2.1,3.19,3.19,0,0,1,.91-1.69,1.12,1.12,0,0,1,1.31.07,2,2,0,0,1,.95,1.31A4.39,4.39,0,0,1,223.29,123.53Zm-2.11-1.26a4.51,4.51,0,0,0-.23,1.37.8.8,0,0,0,.35.67.41.41,0,0,0,.57-.12,3.69,3.69,0,0,0,.51-1.2,4.44,4.44,0,0,0,.22-1.38.78.78,0,0,0-.34-.67.42.42,0,0,0-.58.12A3.94,3.94,0,0,0,221.18,122.27Z" transform="translate(-16.02 -30.14)" style="fill:url(#ap)"/><path d="M226.89,125.68a3.23,3.23,0,0,1-.91,1.68,1.13,1.13,0,0,1-1.32-.07,2,2,0,0,1-.94-1.31,4.36,4.36,0,0,1,.15-2.1,3.19,3.19,0,0,1,.91-1.69,1.12,1.12,0,0,1,1.31.07,2,2,0,0,1,.95,1.31A4.39,4.39,0,0,1,226.89,125.68Zm-2.11-1.26a4.51,4.51,0,0,0-.23,1.37.76.76,0,0,0,.35.67.41.41,0,0,0,.57-.12,3.69,3.69,0,0,0,.51-1.2,4.44,4.44,0,0,0,.22-1.38.78.78,0,0,0-.34-.67.41.41,0,0,0-.58.12A3.94,3.94,0,0,0,224.78,124.42Z" transform="translate(-16.02 -30.14)" style="fill:url(#aq)"/><path d="M197.93,120.85l-.91-.54.8-2.83L198,117l.16-.5-.41.15-.62.15-.27-.88,1.75-.42.75.44Z" transform="translate(-16.02 -30.14)" style="fill:url(#ar)"/><path d="M203,121a3.08,3.08,0,0,1-.91,1.67,1.12,1.12,0,0,1-1.31-.06,2,2,0,0,1-1-1.31,4.35,4.35,0,0,1,.15-2.1,3.08,3.08,0,0,1,.92-1.69,1.13,1.13,0,0,1,1.31.06,2,2,0,0,1,.94,1.32A4.39,4.39,0,0,1,203,121Zm-2.11-1.26a4.51,4.51,0,0,0-.23,1.37.77.77,0,0,0,.35.66.41.41,0,0,0,.58-.12,3.74,3.74,0,0,0,.5-1.2,4.42,4.42,0,0,0,.23-1.37.81.81,0,0,0-.35-.67.39.39,0,0,0-.57.12A3.67,3.67,0,0,0,200.85,119.74Z" transform="translate(-16.02 -30.14)" style="fill:url(#as)"/><path d="M205.13,125.15l-.91-.55.8-2.82.14-.46.16-.5-.41.15-.63.15-.26-.88,1.75-.42.75.44Z" transform="translate(-16.02 -30.14)" style="fill:url(#at)"/><path d="M208.73,127.3l-.91-.55.8-2.82.14-.46.16-.5-.41.15-.63.15-.26-.88,1.74-.42.75.44Z" transform="translate(-16.02 -30.14)" style="fill:url(#au)"/><path d="M213.76,127.45a3.08,3.08,0,0,1-.91,1.67,1.13,1.13,0,0,1-1.32-.06,2,2,0,0,1-.94-1.31,4.35,4.35,0,0,1,.15-2.1,3.14,3.14,0,0,1,.91-1.69A1.12,1.12,0,0,1,213,124a2,2,0,0,1,.95,1.31A4.39,4.39,0,0,1,213.76,127.45Zm-2.11-1.26a4.46,4.46,0,0,0-.23,1.37.76.76,0,0,0,.35.66.4.4,0,0,0,.57-.12,3.49,3.49,0,0,0,.51-1.2,4.36,4.36,0,0,0,.22-1.38.76.76,0,0,0-.35-.66.4.4,0,0,0-.57.12A3.94,3.94,0,0,0,211.65,126.19Z" transform="translate(-16.02 -30.14)" style="fill:url(#av)"/><path d="M215.93,131.6l-.92-.54.81-2.83.14-.46.16-.5-.41.15-.63.15-.26-.88,1.74-.42.75.44Z" transform="translate(-16.02 -30.14)" style="fill:url(#aw)"/><path d="M221,131.75a3.08,3.08,0,0,1-.9,1.67,1.13,1.13,0,0,1-1.32-.06,2,2,0,0,1-.94-1.31,4.23,4.23,0,0,1,.15-2.1,3.14,3.14,0,0,1,.91-1.69,1.13,1.13,0,0,1,1.31.06,2,2,0,0,1,1,1.32A4.29,4.29,0,0,1,221,131.75Zm-2.1-1.26a4.46,4.46,0,0,0-.23,1.37.76.76,0,0,0,.35.66.4.4,0,0,0,.57-.12,3.51,3.51,0,0,0,.51-1.19,4.48,4.48,0,0,0,.22-1.38.79.79,0,0,0-.35-.67.4.4,0,0,0-.57.12A3.94,3.94,0,0,0,218.85,130.49Z" transform="translate(-16.02 -30.14)" style="fill:url(#ax)"/><path d="M223.12,135.9l-.91-.54.81-2.83.14-.46.15-.5a3.27,3.27,0,0,1-.41.15l-.62.15L222,131l1.74-.43.75.45Z" transform="translate(-16.02 -30.14)" style="fill:url(#ay)"/><path d="M195.6,129.07l-.91-.55.8-2.82.14-.46.16-.5-.41.15-.63.15-.26-.88,1.74-.43.75.45Z" transform="translate(-16.02 -30.14)" style="fill:url(#az)"/><path d="M200.63,129.22a3.15,3.15,0,0,1-.91,1.67,1.13,1.13,0,0,1-1.32-.07,2,2,0,0,1-.94-1.3,4.39,4.39,0,0,1,.15-2.11,3.15,3.15,0,0,1,.91-1.68,1.13,1.13,0,0,1,1.31.06,2,2,0,0,1,.95,1.32A4.39,4.39,0,0,1,200.63,129.22ZM198.52,128a4.51,4.51,0,0,0-.23,1.37.76.76,0,0,0,.35.67.4.4,0,0,0,.57-.12,3.69,3.69,0,0,0,.51-1.2,4.44,4.44,0,0,0,.22-1.38.77.77,0,0,0-.34-.66.41.41,0,0,0-.58.11A4.06,4.06,0,0,0,198.52,128Z" transform="translate(-16.02 -30.14)" style="fill:url(#ba)"/><path d="M202.79,133.37l-.91-.55.81-2.82.14-.46.16-.5-.42.15-.62.15-.26-.88,1.74-.43.75.45Z" transform="translate(-16.02 -30.14)" style="fill:url(#bb)"/><path d="M207.83,133.51a3.15,3.15,0,0,1-.91,1.68,1.13,1.13,0,0,1-1.32-.07,1.94,1.94,0,0,1-.94-1.3,4.27,4.27,0,0,1,.15-2.11,3.15,3.15,0,0,1,.91-1.68,1.13,1.13,0,0,1,1.31.06,2,2,0,0,1,.95,1.32A4.35,4.35,0,0,1,207.83,133.51Zm-2.11-1.26a4.23,4.23,0,0,0-.23,1.38.74.74,0,0,0,.35.66.4.4,0,0,0,.57-.12,3.69,3.69,0,0,0,.51-1.2,4.44,4.44,0,0,0,.22-1.38.76.76,0,0,0-.35-.66.4.4,0,0,0-.57.11A3.81,3.81,0,0,0,205.72,132.25Z" transform="translate(-16.02 -30.14)" style="fill:url(#bc)"/><path d="M211.42,135.66a3.08,3.08,0,0,1-.9,1.68,1.13,1.13,0,0,1-1.32-.07,2,2,0,0,1-.95-1.3,4.37,4.37,0,0,1,.16-2.1,3.14,3.14,0,0,1,.91-1.69,1.12,1.12,0,0,1,1.31.06,2,2,0,0,1,1,1.32A4.24,4.24,0,0,1,211.42,135.66Zm-2.1-1.26a4.23,4.23,0,0,0-.23,1.38.74.74,0,0,0,.35.66.4.4,0,0,0,.57-.12,3.69,3.69,0,0,0,.51-1.2,4.44,4.44,0,0,0,.22-1.38.76.76,0,0,0-.35-.66.4.4,0,0,0-.57.11A3.59,3.59,0,0,0,209.32,134.4Z" transform="translate(-16.02 -30.14)" style="fill:url(#bd)"/><path d="M215,137.81a3,3,0,0,1-.91,1.68,1.12,1.12,0,0,1-1.31-.07,2,2,0,0,1-1-1.3A4.24,4.24,0,0,1,212,136a3.08,3.08,0,0,1,.91-1.69,1.12,1.12,0,0,1,1.31.06,2,2,0,0,1,.94,1.32A4.11,4.11,0,0,1,215,137.81Zm-2.11-1.26a4.85,4.85,0,0,0-.23,1.38.77.77,0,0,0,.36.66.4.4,0,0,0,.57-.12,3.73,3.73,0,0,0,.5-1.2,4.52,4.52,0,0,0,.23-1.38.76.76,0,0,0-.35-.66.4.4,0,0,0-.57.12A3.59,3.59,0,0,0,212.91,136.55Z" transform="translate(-16.02 -30.14)" style="fill:url(#be)"/><path d="M217.19,142l-.91-.55.8-2.83.14-.46.16-.49a2.16,2.16,0,0,1-.41.14l-.62.16-.27-.88,1.75-.43.75.45Z" transform="translate(-16.02 -30.14)" style="fill:url(#bf)"/><path d="M220.79,144.12l-.91-.55.8-2.83.14-.45.16-.5-.41.15-.62.15-.27-.88,1.75-.43.75.45Z" transform="translate(-16.02 -30.14)" style="fill:url(#bg)"/><path d="M194.69,135.28a3.1,3.1,0,0,1-.91,1.68,1.12,1.12,0,0,1-1.31-.07,2,2,0,0,1-.94-1.31,4.24,4.24,0,0,1,.15-2.1,3.19,3.19,0,0,1,.91-1.69,1.12,1.12,0,0,1,1.31.07,2,2,0,0,1,.95,1.31A4.28,4.28,0,0,1,194.69,135.28Zm-2.1-1.26a4.51,4.51,0,0,0-.23,1.37.74.74,0,0,0,.35.67.41.41,0,0,0,.57-.12,3.51,3.51,0,0,0,.5-1.2,4.23,4.23,0,0,0,.23-1.38.76.76,0,0,0-.35-.66.4.4,0,0,0-.57.11A3.7,3.7,0,0,0,192.59,134Z" transform="translate(-16.02 -30.14)" style="fill:url(#bh)"/><path d="M196.86,139.44l-.91-.55.8-2.83.14-.46.16-.5a2.45,2.45,0,0,1-.41.15l-.62.16-.26-.89,1.74-.42.75.45Z" transform="translate(-16.02 -30.14)" style="fill:url(#bi)"/><path d="M200.46,141.58l-.91-.54.8-2.83.14-.46.16-.5-.41.15-.62.16-.27-.89,1.75-.42.75.45Z" transform="translate(-16.02 -30.14)" style="fill:url(#bj)"/><path d="M205.49,141.73a3.06,3.06,0,0,1-.91,1.68,1.12,1.12,0,0,1-1.31-.07,2,2,0,0,1-1-1.31,4.26,4.26,0,0,1,.16-2.1,3.06,3.06,0,0,1,.91-1.69,1.12,1.12,0,0,1,1.31.07,2,2,0,0,1,.94,1.31A4.15,4.15,0,0,1,205.49,141.73Zm-2.11-1.26a4.43,4.43,0,0,0-.22,1.37.76.76,0,0,0,.34.67.41.41,0,0,0,.58-.12,4,4,0,0,0,.5-1.2,4.52,4.52,0,0,0,.23-1.38.79.79,0,0,0-.35-.67.4.4,0,0,0-.57.12A3.67,3.67,0,0,0,203.38,140.47Z" transform="translate(-16.02 -30.14)" style="fill:url(#bk)"/><path d="M207.66,145.88l-.91-.54.8-2.83.14-.46.16-.5-.41.15-.62.16-.27-.89,1.75-.42.75.45Z" transform="translate(-16.02 -30.14)" style="fill:url(#bl)"/><path d="M212.69,146a3.12,3.12,0,0,1-.91,1.68,1.12,1.12,0,0,1-1.31-.07,2,2,0,0,1-.95-1.31,4.36,4.36,0,0,1,.15-2.1,3.19,3.19,0,0,1,.91-1.69,1.12,1.12,0,0,1,1.31.07,2,2,0,0,1,1,1.31A4.38,4.38,0,0,1,212.69,146Zm-2.11-1.26a4.51,4.51,0,0,0-.23,1.37.8.8,0,0,0,.35.67.42.42,0,0,0,.58-.12,4,4,0,0,0,.5-1.2,4.52,4.52,0,0,0,.23-1.38.81.81,0,0,0-.35-.67.4.4,0,0,0-.57.12A3.67,3.67,0,0,0,210.58,144.77Z" transform="translate(-16.02 -30.14)" style="fill:url(#bm)"/><path d="M214.86,150.18l-.92-.54.81-2.83.14-.46.16-.5-.41.15-.63.16-.26-.89,1.74-.42.76.45Z" transform="translate(-16.02 -30.14)" style="fill:url(#bn)"/><path d="M219.89,150.33A3.23,3.23,0,0,1,219,152a1.13,1.13,0,0,1-1.32-.07,2,2,0,0,1-.94-1.31,4.36,4.36,0,0,1,.15-2.1,3.19,3.19,0,0,1,.91-1.69,1.12,1.12,0,0,1,1.31.07,2,2,0,0,1,.95,1.31A4.39,4.39,0,0,1,219.89,150.33Zm-2.11-1.26a4.51,4.51,0,0,0-.23,1.37.76.76,0,0,0,.35.67.4.4,0,0,0,.57-.12,3.69,3.69,0,0,0,.51-1.2,4.44,4.44,0,0,0,.22-1.38.76.76,0,0,0-.35-.67.4.4,0,0,0-.57.12A3.94,3.94,0,0,0,217.78,149.07Z" transform="translate(-16.02 -30.14)" style="fill:url(#bo)"/><path d="M190.93,145.5,190,145l.8-2.83.14-.46.16-.5-.41.15-.62.15-.27-.88,1.75-.42.75.44Z" transform="translate(-16.02 -30.14)" style="fill:url(#bp)"/><path d="M196,145.65a3.08,3.08,0,0,1-.91,1.67,1.12,1.12,0,0,1-1.31-.06,2,2,0,0,1-1-1.31,4.24,4.24,0,0,1,.16-2.1,3.06,3.06,0,0,1,.91-1.69,1.12,1.12,0,0,1,1.31.07,2,2,0,0,1,.94,1.31A4.39,4.39,0,0,1,196,145.65Zm-2.11-1.26a4.46,4.46,0,0,0-.23,1.37.81.81,0,0,0,.35.67.42.42,0,0,0,.58-.12,4,4,0,0,0,.5-1.2,4.16,4.16,0,0,0,.22-1.38.78.78,0,0,0-.34-.67.39.39,0,0,0-.57.12A3.67,3.67,0,0,0,193.85,144.39Z" transform="translate(-16.02 -30.14)" style="fill:url(#bq)"/><path d="M198.13,149.8l-.92-.54.81-2.83.14-.46.16-.5-.41.15-.63.15-.26-.88,1.75-.42.75.44Z" transform="translate(-16.02 -30.14)" style="fill:url(#br)"/><path d="M203.16,150a3.08,3.08,0,0,1-.91,1.67,1.12,1.12,0,0,1-1.31-.06,2,2,0,0,1-.95-1.31,4.35,4.35,0,0,1,.15-2.1,3.14,3.14,0,0,1,.91-1.69,1.12,1.12,0,0,1,1.31.07,2,2,0,0,1,.95,1.31A4.39,4.39,0,0,1,203.16,150Zm-2.11-1.26a4.46,4.46,0,0,0-.23,1.37.76.76,0,0,0,.35.66.4.4,0,0,0,.57-.11,3.69,3.69,0,0,0,.51-1.2,4.44,4.44,0,0,0,.22-1.38.78.78,0,0,0-.34-.67.41.41,0,0,0-.58.12A3.94,3.94,0,0,0,201.05,148.69Z" transform="translate(-16.02 -30.14)" style="fill:url(#bs)"/><path d="M205.33,154.1l-.92-.54.81-2.83.14-.46.16-.5-.41.15-.63.15-.26-.88,1.74-.43.75.45Z" transform="translate(-16.02 -30.14)" style="fill:url(#bt)"/><path d="M208.93,156.25l-.92-.54.81-2.83.14-.46.16-.5-.42.15-.62.15-.26-.88,1.74-.42.75.44Z" transform="translate(-16.02 -30.14)" style="fill:url(#bu)"/><path d="M214,156.4a3.08,3.08,0,0,1-.9,1.67,1.13,1.13,0,0,1-1.32-.06,2,2,0,0,1-.94-1.31,4.24,4.24,0,0,1,.15-2.1,3.14,3.14,0,0,1,.91-1.69,1.13,1.13,0,0,1,1.31.06,2,2,0,0,1,1,1.32A4.29,4.29,0,0,1,214,156.4Zm-2.1-1.26a4.46,4.46,0,0,0-.23,1.37.74.74,0,0,0,.35.66.4.4,0,0,0,.57-.12,3.49,3.49,0,0,0,.51-1.2,4.35,4.35,0,0,0,.22-1.37.79.79,0,0,0-.35-.67.4.4,0,0,0-.57.12A3.94,3.94,0,0,0,211.85,155.14Z" transform="translate(-16.02 -30.14)" style="fill:url(#bv)"/><path d="M216.12,160.55l-.91-.54.81-2.83.14-.46.15-.5a3.27,3.27,0,0,1-.41.15l-.62.15-.26-.88,1.74-.43.75.45Z" transform="translate(-16.02 -30.14)" style="fill:url(#bw)"/><path d="M188.6,153.72l-.92-.55.81-2.82.14-.46.16-.5-.41.15-.63.15-.26-.88,1.75-.43.74.45Z" transform="translate(-16.02 -30.14)" style="fill:url(#bx)"/><path d="M193.63,153.87a3.15,3.15,0,0,1-.91,1.67,1.13,1.13,0,0,1-1.32-.07,2,2,0,0,1-.94-1.3,4.35,4.35,0,0,1,.15-2.1,3.14,3.14,0,0,1,.91-1.69,1.12,1.12,0,0,1,1.31.06,2,2,0,0,1,.95,1.32A4.39,4.39,0,0,1,193.63,153.87Zm-2.11-1.27a4.52,4.52,0,0,0-.23,1.38.76.76,0,0,0,.35.66.4.4,0,0,0,.57-.12,3.69,3.69,0,0,0,.51-1.2,4.44,4.44,0,0,0,.22-1.38.75.75,0,0,0-.34-.66.41.41,0,0,0-.58.12A3.85,3.85,0,0,0,191.52,152.6Z" transform="translate(-16.02 -30.14)" style="fill:url(#by)"/><path d="M195.79,158l-.91-.55.81-2.82.14-.46.16-.5-.41.15L195,154l-.26-.88,1.74-.43.75.45Z" transform="translate(-16.02 -30.14)" style="fill:url(#bz)"/><path d="M199.39,160.17l-.91-.55.8-2.82.15-.47.16-.49-.42.15-.62.15-.26-.88,1.74-.43.75.45Z" transform="translate(-16.02 -30.14)" style="fill:url(#ca)"/><path d="M204.42,160.31a3.08,3.08,0,0,1-.9,1.68,1.13,1.13,0,0,1-1.32-.07,2,2,0,0,1-.95-1.3,4.41,4.41,0,0,1,.16-2.11,3.08,3.08,0,0,1,.91-1.68,1.12,1.12,0,0,1,1.31.06,2,2,0,0,1,1,1.32A4.24,4.24,0,0,1,204.42,160.31Zm-2.1-1.26a4.23,4.23,0,0,0-.23,1.38.74.74,0,0,0,.35.66A.4.4,0,0,0,203,161a3.69,3.69,0,0,0,.51-1.2,4.77,4.77,0,0,0,.22-1.38.77.77,0,0,0-.35-.66.4.4,0,0,0-.57.12A3.42,3.42,0,0,0,202.32,159.05Z" transform="translate(-16.02 -30.14)" style="fill:url(#cb)"/><path d="M206.59,164.47l-.91-.55.8-2.83.14-.46.16-.49-.41.15-.62.15-.26-.88,1.74-.43.75.45Z" transform="translate(-16.02 -30.14)" style="fill:url(#cc)"/><path d="M211.62,164.61a3,3,0,0,1-.91,1.68,1.12,1.12,0,0,1-1.31-.07,2,2,0,0,1-1-1.3,4.29,4.29,0,0,1,.16-2.11,3,3,0,0,1,.91-1.68,1.12,1.12,0,0,1,1.31.06,2,2,0,0,1,.94,1.32A4.11,4.11,0,0,1,211.62,164.61Zm-2.11-1.26a4.85,4.85,0,0,0-.23,1.38.78.78,0,0,0,.35.66.41.41,0,0,0,.58-.12,3.62,3.62,0,0,0,.5-1.2,4.52,4.52,0,0,0,.23-1.38.76.76,0,0,0-.35-.66.39.39,0,0,0-.57.12A3.49,3.49,0,0,0,209.51,163.35Z" transform="translate(-16.02 -30.14)" style="fill:url(#cd)"/><path d="M213.79,168.77l-.91-.55.8-2.83.14-.46.16-.49-.41.15-.62.15-.27-.88,1.75-.43.75.45Z" transform="translate(-16.02 -30.14)" style="fill:url(#ce)"/><path d="M186.26,161.94l-.91-.55.81-2.83.14-.46.15-.5c-.2.09-.33.13-.41.16l-.62.15-.26-.89,1.74-.42.75.45Z" transform="translate(-16.02 -30.14)" style="fill:url(#cf)"/><path d="M191.29,162.08a3.06,3.06,0,0,1-.91,1.68,1.12,1.12,0,0,1-1.31-.07,2,2,0,0,1-.94-1.31,4.12,4.12,0,0,1,.15-2.1,3.16,3.16,0,0,1,.91-1.69,1.12,1.12,0,0,1,1.31.07,2,2,0,0,1,.95,1.31A4.28,4.28,0,0,1,191.29,162.08Zm-2.11-1.26a4.85,4.85,0,0,0-.23,1.37.77.77,0,0,0,.36.67.4.4,0,0,0,.57-.12,3.51,3.51,0,0,0,.5-1.2,4.23,4.23,0,0,0,.23-1.38.76.76,0,0,0-.35-.66.4.4,0,0,0-.57.11A3.9,3.9,0,0,0,189.18,160.82Z" transform="translate(-16.02 -30.14)" style="fill:url(#cg)"/><path d="M193.46,166.23l-.91-.54.8-2.83.14-.46.16-.5-.41.15-.62.16-.27-.89,1.75-.42.75.45Z" transform="translate(-16.02 -30.14)" style="fill:url(#ch)"/><path d="M198.49,166.38a3.06,3.06,0,0,1-.91,1.68,1.12,1.12,0,0,1-1.31-.07,2,2,0,0,1-1-1.31,4.26,4.26,0,0,1,.16-2.1,3.09,3.09,0,0,1,.91-1.69,1.12,1.12,0,0,1,1.31.07,2,2,0,0,1,.94,1.31A4.15,4.15,0,0,1,198.49,166.38Zm-2.11-1.26a4.85,4.85,0,0,0-.23,1.37.79.79,0,0,0,.35.67.41.41,0,0,0,.58-.12,4,4,0,0,0,.5-1.2,4.52,4.52,0,0,0,.23-1.38.79.79,0,0,0-.35-.67.4.4,0,0,0-.57.12A3.67,3.67,0,0,0,196.38,165.12Z" transform="translate(-16.02 -30.14)" style="fill:url(#ci)"/><path d="M202.09,168.53a3.06,3.06,0,0,1-.91,1.68,1.12,1.12,0,0,1-1.31-.07,2,2,0,0,1-1-1.31,4.26,4.26,0,0,1,.16-2.1A3.06,3.06,0,0,1,200,165a1.12,1.12,0,0,1,1.31.07,2,2,0,0,1,.94,1.31A4.39,4.39,0,0,1,202.09,168.53ZM200,167.27a4.51,4.51,0,0,0-.23,1.37.79.79,0,0,0,.35.67.41.41,0,0,0,.58-.12,3.73,3.73,0,0,0,.5-1.2,4.52,4.52,0,0,0,.23-1.38.81.81,0,0,0-.35-.67.41.41,0,0,0-.57.12A3.67,3.67,0,0,0,200,167.27Z" transform="translate(-16.02 -30.14)" style="fill:url(#cj)"/><path d="M205.69,170.68a3.12,3.12,0,0,1-.91,1.68,1.12,1.12,0,0,1-1.31-.07,2,2,0,0,1-.95-1.31,4.26,4.26,0,0,1,.16-2.1,3.06,3.06,0,0,1,.91-1.69,1.1,1.1,0,0,1,1.3.07,2,2,0,0,1,1,1.31A4.39,4.39,0,0,1,205.69,170.68Zm-2.11-1.26a4.51,4.51,0,0,0-.23,1.37.79.79,0,0,0,.35.67.4.4,0,0,0,.57-.12,3.69,3.69,0,0,0,.51-1.2,4.52,4.52,0,0,0,.23-1.38.81.81,0,0,0-.35-.67.4.4,0,0,0-.57.12A3.67,3.67,0,0,0,203.58,169.42Z" transform="translate(-16.02 -30.14)" style="fill:url(#ck)"/><path d="M207.86,174.83l-.91-.54.8-2.83.14-.46.16-.5a2.83,2.83,0,0,1-.41.15l-.63.16-.26-.89,1.75-.42.75.45Z" transform="translate(-16.02 -30.14)" style="fill:url(#cl)"/><path d="M211.46,177l-.92-.54.81-2.83.14-.46.16-.5-.41.15-.63.16-.26-.89,1.75-.42.75.45Z" transform="translate(-16.02 -30.14)" style="fill:url(#cm)"/></g></svg>