<?xml version="1.0" encoding="utf-8"?>
<!-- Generator: Adobe Illustrator 25.2.1, SVG Export Plug-In . SVG Version: 6.00 Build 0)  -->
<svg version="1.1" id="Capa_1" xmlns="http://www.w3.org/2000/svg" xmlns:xlink="http://www.w3.org/1999/xlink" x="0px" y="0px"
	 viewBox="0 0 80 80" style="enable-background:new 0 0 80 80;" xml:space="preserve">
<style type="text/css">
	.st0{fill:#1A1A1A;}
</style>
<path class="st0" d="M16.1,43.7c2.8-1.5,5.5-3.2,8-5c2.4,1.8,4.7,3.8,6.8,5.9c0.5,0.5,0.9,0.9,1.4,1.4c-1.9,2.3-3.6,4.8-5.2,7.3
	c2.1,2.3,4,4.9,5.7,7.5c2,3.1,3.6,6.3,5,9.7c1.4-3.4,3.2-6.6,5.2-9.6c1.8-2.6,3.7-5.1,5.9-7.4c-1.5-2.6-3.2-5-5-7.4
	c0.4-0.4,0.9-0.9,1.3-1.3c2.2-2.1,4.5-4,6.9-5.8c2.5,1.9,5.2,3.6,8,5.2c3.1-2,6.3-3.6,9.7-5c-3.4-1.4-6.6-3.2-9.6-5.2l0,0
	c-2.6-1.8-5.1-3.7-7.4-5.9c-1.3-1.2-2.5-2.4-3.6-3.7c-2.1-2.3-4-4.9-5.7-7.5c-2-3.1-3.6-6.3-5-9.7c-1.4,3.4-3.2,6.6-5.2,9.6
	c-1.8,2.6-3.7,5.1-5.9,7.4c-1.1,1.2-2.3,2.4-3.6,3.5c-2.3,2.1-4.9,4-7.5,5.8c-3,2-6.3,3.6-9.7,5C9.8,40,13.1,41.7,16.1,43.7z
	 M32.3,31.7c2.1-2.1,4.1-4.4,5.9-6.8c1.8,2.4,3.7,4.7,5.7,6.9c0.5,0.5,0.9,0.9,1.4,1.4c-2.3,1.8-4.5,3.7-6.6,5.8
	c-0.2,0.2-0.3,0.3-0.5,0.5c-0.2-0.2-0.4-0.4-0.6-0.6c-2.1-2.1-4.2-4-6.5-5.9C31.4,32.5,31.9,32.1,32.3,31.7z"/>
</svg>
